<svg xmlns="http://www.w3.org/2000/svg" viewBox="0 0 48 48">
    <g fill="none" fill-rule="evenodd">
        <circle cx="24" cy="24" r="23.25" stroke="#573D90" stroke-width="1.5"/>
        <path stroke="#573D90" stroke-width="1.5" d="M10.552 5.16c.984 7.897 4.502 11.991 10.555 12.281C23.464 18.484 23.1 19.05 24 20.805c.899 1.755 1.902 2.07 1.16 3.133-.74 1.062-.654 5.97 1.883 6.886 1.69.61 1.96 2.287.806 5.032-1.04 1.813-1.308 3.158-.806 4.035.752 1.314.52.57 1.957 0 1.437-.572 4.206-1.627 5.237-4.035.687-1.606 2.099-3.007 4.237-4.203 2.439-3.382 3.157-5.444 2.153-6.187l-3.718-2.75c-.86-2.528-2.062-3.689-3.605-3.48-1.542.21-2.333.001-2.374-.625-1.533-.183-2.43.025-2.69.626-.39.9-1.463 1.882-2.234-.31-.771-2.194-2.492-3.382-3.696-3.95-1.203-.568-2.206-2.423 0-2.655 2.207-.232 4.094-.327 3.696 1.226-.398 1.554 1.51 2.14 1.843 1.05.334-1.09 2.708-1.221 1.901-2.761-.807-1.54 2.659-8.603 7.159-7.04"/>
        <path stroke="#573D90" stroke-linecap="round" stroke-linejoin="round" stroke-width="1.5" d="M30 15.855c.347.097.847.145 1.5.145"/>
        <path stroke="#573D90" stroke-width="1.5" d="M5.655 28.539C7.338 35.28 11.38 39.687 17.78 41.757"/>
        <circle cx="5" cy="26" r="1" fill="#573D90"/>
    </g>
</svg>
