<svg xmlns="http://www.w3.org/2000/svg" viewBox="0 0 48 48">
    <g fill="none" fill-rule="evenodd" transform="translate(-2)">
        <path fill="#573D90" fill-rule="nonzero" d="M6.638 42.72l1.697 1.697-1.358 1.358-1.697-1.697-1.697 1.697-1.358-1.358 1.697-1.697-1.697-1.697 1.358-1.358 1.697 1.697 1.697-1.697 1.358 1.358-1.697 1.697zM44.078 5.28l1.697 1.697-1.358 1.358-1.697-1.697-1.697 1.697-1.358-1.358 1.697-1.697-1.697-1.697 1.358-1.358 1.697 1.697 1.697-1.697 1.358 1.358-1.697 1.697z"/>
        <path stroke="#573D90" stroke-width="1.5" d="M15.073 1.992l-.108.19-.892 1.565C10.562 11.15 8.7 16.25 8.493 18.965c-.72 9.382 4.872 14.45 14.804 14.18 9.51-.259 14.857-5.446 14.126-14.532-.245-3.043-2.384-8.611-6.414-16.622a112.892 112.892 0 0 0-15.936.001zM23.051 33.248l-.015 12.149"/>
        <path stroke="#573D90" stroke-linecap="square" stroke-width="1.5" d="M16.32 45.6h13.44"/>
        <path stroke="#573D90" stroke-width="1.5" d="M9.493 14.941c3.09-2.22 6.993-2.22 11.707 0 4.715 2.22 9.773 2.624 15.173 1.214M12.478 18.322c0 5.705 3.136 8.856 9.407 9.45"/>
        <circle cx="24" cy="27.84" r="1" fill="#573D90"/>
    </g>
</svg>
