<svg xmlns="http://www.w3.org/2000/svg" xmlns:xlink="http://www.w3.org/1999/xlink" viewBox="0 0 48 48">
    <defs>
        <path id="a" d="M0 0h48v48H0z"/>
    </defs>
    <g fill="none" fill-rule="evenodd">
        <mask id="b" fill="#fff">
            <use xlink:href="#a"/>
        </mask>
        <g stroke="#573D90" stroke-width="1.5" mask="url(#b)">
            <g transform="translate(11 17)">
                <circle cx="18" cy="26" r="4.25"/>
                <circle cx="22" cy="19" r="4.25"/>
                <circle cx="13" cy="19" r="4.25"/>
                <circle cx="18" cy="12" r="4.25"/>
                <circle cx="27" cy="12" r="4.25"/>
                <circle cx="9" cy="12" r="4.25"/>
                <circle cx="23" cy="5" r="4.25"/>
                <circle cx="31" cy="5" r="4.25"/>
                <circle cx="14" cy="5" r="4.25"/>
                <circle cx="5" cy="5" r="4.25"/>
            </g>
        </g>
        <g mask="url(#b)">
            <g transform="rotate(25 12.745 19.01)">
                <path fill="#FFF" stroke="#573D90" stroke-width="1.5" d="M17.944 9.916c.1.165.205.308.312.429 5.307 1.775 6.328 5.947 3.086 12.004l-.661-.354-.28-.388c-.226 2.029-1.295 3.799-2.912 5.11-.905.734-1.903 1.23-2.671 1.33-1.198.157-1.891-.749-1.284-1.892.366-.69.39-.913.259-1.194-.038-.083-.25-.467-.292-.551a4.622 4.622 0 0 1-.423-1.21c-1.88 1.836-5.116 2.655-9.632 2.503l-.542-.018-.152-.52c-1.432-4.896-.817-8.536 1.86-10.758-.534-.07-.805-.194-1.07-.41-.56-.457-1.099-.673-3.682-1.164l-.706-.135.104-.71c.468-3.215 4.719-5.106 8.315-4.969-.497-.403-1.221-.984-1.599-1.329l-1.03-.94 1.352-.34c6.96-1.757 11.007.086 11.648 5.506zm2.078 11.82l.001.012a.46.46 0 0 0-.006-.04z"/>
                <circle cx="7" cy="20.509" r="1" fill="#573D90"/>
                <path stroke="#573D90" stroke-linecap="round" stroke-linejoin="round" stroke-width="1.5" d="M17.842 11C17.258 4.716 19.644 1.05 25 0c-3.622 2.154-4.616 12.802 1.792 11.28 6.408-1.522 3.257-8.28.635-6.076"/>
                <path stroke="#573D90" stroke-width="1.5" d="M17.14 10.509c-5.944 2.157-8.632 4.83-8.066 8.02M15 11c1 2.154 1.333 3.947 1 5.38M9 11.634c2.155-1 3.948-1.334 5.381-1"/>
            </g>
        </g>
    </g>
</svg>
